<mxfile host="app.diagrams.net" modified="2023-01-20T13:13:53.808Z" agent="5.0 (Windows NT 10.0; Win64; x64) AppleWebKit/537.36 (KHTML, like Gecko) Chrome/109.0.0.0 Safari/537.36" etag="nQpgSbVpp1ccgDjvEa3R" version="20.8.8" type="github">
  <diagram name="Page-1" id="b5b7bab2-c9e2-2cf4-8b2a-24fd1a2a6d21">
    <mxGraphModel dx="2874" dy="1124" grid="0" gridSize="10" guides="1" tooltips="1" connect="1" arrows="1" fold="1" page="1" pageScale="1" pageWidth="827" pageHeight="1169" background="none" math="0" shadow="0">
      <root>
        <mxCell id="0" />
        <mxCell id="1" parent="0" />
        <mxCell id="6e0c8c40b5770093-72" value="" style="shape=folder;fontStyle=1;spacingTop=10;tabWidth=194;tabHeight=22;tabPosition=left;html=1;rounded=0;shadow=0;comic=0;labelBackgroundColor=none;strokeWidth=1;fillColor=none;fontFamily=Verdana;fontSize=10;align=center;" parent="1" vertex="1">
          <mxGeometry x="426" y="134.5" width="771" height="940" as="geometry" />
        </mxCell>
        <mxCell id="6e0c8c40b5770093-6" value="" style="group" parent="1" vertex="1" connectable="0">
          <mxGeometry x="592.5" y="174.5" width="130" height="70" as="geometry" />
        </mxCell>
        <mxCell id="6e0c8c40b5770093-4" value="App.vue" style="shape=folder;fontStyle=1;spacingTop=10;tabWidth=50;tabHeight=17;tabPosition=left;html=1;rounded=0;shadow=0;comic=0;labelBackgroundColor=none;strokeWidth=1;fontFamily=Verdana;fontSize=10;align=center;" parent="6e0c8c40b5770093-6" vertex="1">
          <mxGeometry width="130" height="70" as="geometry" />
        </mxCell>
        <mxCell id="6e0c8c40b5770093-18" value="" style="group" parent="1" vertex="1" connectable="0">
          <mxGeometry x="488.5" y="294.5" width="280" height="130" as="geometry" />
        </mxCell>
        <mxCell id="6e0c8c40b5770093-11" value="" style="shape=folder;fontStyle=1;spacingTop=10;tabWidth=123;tabHeight=24;tabPosition=left;html=1;rounded=0;shadow=0;comic=0;labelBackgroundColor=none;strokeWidth=1;fontFamily=Verdana;fontSize=10;align=center;" parent="6e0c8c40b5770093-18" vertex="1">
          <mxGeometry width="280" height="130" as="geometry" />
        </mxCell>
        <mxCell id="6e0c8c40b5770093-15" value="Dialogue Enquiry&lt;br&gt;Form" style="shape=folder;fontStyle=1;spacingTop=10;tabWidth=50;tabHeight=17;tabPosition=left;html=1;rounded=0;shadow=0;comic=0;labelBackgroundColor=none;strokeWidth=1;fontFamily=Verdana;fontSize=10;align=center;" parent="6e0c8c40b5770093-18" vertex="1">
          <mxGeometry x="18" y="40" width="112" height="70" as="geometry" />
        </mxCell>
        <mxCell id="6e0c8c40b5770093-17" value="package" style="shape=folder;fontStyle=1;spacingTop=10;tabWidth=50;tabHeight=17;tabPosition=left;html=1;rounded=0;shadow=0;comic=0;labelBackgroundColor=none;strokeWidth=1;fontFamily=Verdana;fontSize=10;align=center;" parent="6e0c8c40b5770093-18" vertex="1">
          <mxGeometry x="148" y="40" width="112" height="70" as="geometry" />
        </mxCell>
        <mxCell id="wQKDGnHZupbdsFtt9BV4-38" value="Enquiry View" style="text;html=1;align=left;verticalAlign=top;spacingTop=-4;fontSize=10;fontFamily=Verdana" vertex="1" parent="6e0c8c40b5770093-18">
          <mxGeometry x="1" y="2.5" width="130" height="20" as="geometry" />
        </mxCell>
        <mxCell id="6e0c8c40b5770093-19" value="" style="group" parent="1" vertex="1" connectable="0">
          <mxGeometry x="812.5" y="298.5" width="280" height="130" as="geometry" />
        </mxCell>
        <mxCell id="6e0c8c40b5770093-20" value="" style="shape=folder;fontStyle=1;spacingTop=10;tabWidth=123;tabHeight=24;tabPosition=left;html=1;rounded=0;shadow=0;comic=0;labelBackgroundColor=none;strokeWidth=1;fontFamily=Verdana;fontSize=10;align=center;" parent="6e0c8c40b5770093-19" vertex="1">
          <mxGeometry width="280" height="130" as="geometry" />
        </mxCell>
        <mxCell id="6e0c8c40b5770093-22" value="Filters" style="shape=folder;fontStyle=1;spacingTop=10;tabWidth=50;tabHeight=17;tabPosition=left;html=1;rounded=0;shadow=0;comic=0;labelBackgroundColor=none;strokeWidth=1;fontFamily=Verdana;fontSize=10;align=center;" parent="6e0c8c40b5770093-19" vertex="1">
          <mxGeometry x="18" y="40" width="112" height="70" as="geometry" />
        </mxCell>
        <mxCell id="6e0c8c40b5770093-23" value="Results List" style="shape=folder;fontStyle=1;spacingTop=10;tabWidth=50;tabHeight=17;tabPosition=left;html=1;rounded=0;shadow=0;comic=0;labelBackgroundColor=none;strokeWidth=1;fontFamily=Verdana;fontSize=10;align=center;" parent="6e0c8c40b5770093-19" vertex="1">
          <mxGeometry x="148" y="40" width="112" height="70" as="geometry" />
        </mxCell>
        <mxCell id="wQKDGnHZupbdsFtt9BV4-39" value="Results View" style="text;html=1;align=left;verticalAlign=top;spacingTop=-4;fontSize=10;fontFamily=Verdana" vertex="1" parent="6e0c8c40b5770093-19">
          <mxGeometry x="2" y="2" width="130" height="20" as="geometry" />
        </mxCell>
        <mxCell id="6e0c8c40b5770093-68" style="edgeStyle=elbowEdgeStyle;rounded=0;html=1;entryX=0.628;entryY=0.26;entryPerimeter=0;dashed=1;labelBackgroundColor=none;startFill=0;endArrow=open;endFill=0;endSize=10;fontFamily=Verdana;fontSize=10;" parent="1" source="6e0c8c40b5770093-47" target="6e0c8c40b5770093-53" edge="1">
          <mxGeometry relative="1" as="geometry" />
        </mxCell>
        <mxCell id="6e0c8c40b5770093-69" style="edgeStyle=elbowEdgeStyle;rounded=0;html=1;entryX=0.643;entryY=0.246;entryPerimeter=0;dashed=1;labelBackgroundColor=none;startFill=0;endArrow=open;endFill=0;endSize=10;fontFamily=Verdana;fontSize=10;" parent="1" source="6e0c8c40b5770093-47" target="6e0c8c40b5770093-56" edge="1">
          <mxGeometry relative="1" as="geometry" />
        </mxCell>
        <mxCell id="wQKDGnHZupbdsFtt9BV4-25" value="" style="edgeStyle=orthogonalEdgeStyle;rounded=0;orthogonalLoop=1;jettySize=auto;html=1;" edge="1" parent="1" source="6e0c8c40b5770093-47" target="wQKDGnHZupbdsFtt9BV4-18">
          <mxGeometry relative="1" as="geometry">
            <Array as="points">
              <mxPoint x="1155" y="850" />
              <mxPoint x="1155" y="920" />
            </Array>
          </mxGeometry>
        </mxCell>
        <mxCell id="6e0c8c40b5770093-52" value="" style="group" parent="1" vertex="1" connectable="0">
          <mxGeometry x="797" y="954.5694795496323" width="130" height="70" as="geometry" />
        </mxCell>
        <mxCell id="6e0c8c40b5770093-53" value="Hydration" style="shape=folder;fontStyle=1;spacingTop=10;tabWidth=50;tabHeight=17;tabPosition=left;html=1;rounded=0;shadow=0;comic=0;labelBackgroundColor=none;strokeWidth=1;fontFamily=Verdana;fontSize=10;align=center;" parent="6e0c8c40b5770093-52" vertex="1">
          <mxGeometry width="130" height="70" as="geometry" />
        </mxCell>
        <mxCell id="6e0c8c40b5770093-55" value="" style="group" parent="1" vertex="1" connectable="0">
          <mxGeometry x="573.5" y="954.5694795496323" width="130" height="70" as="geometry" />
        </mxCell>
        <mxCell id="6e0c8c40b5770093-56" value="API/HTTP" style="shape=folder;fontStyle=1;spacingTop=10;tabWidth=50;tabHeight=17;tabPosition=left;html=1;rounded=0;shadow=0;comic=0;labelBackgroundColor=none;strokeWidth=1;fontFamily=Verdana;fontSize=10;align=center;" parent="6e0c8c40b5770093-55" vertex="1">
          <mxGeometry width="130" height="70" as="geometry" />
        </mxCell>
        <mxCell id="6e0c8c40b5770093-73" value="Frontend Vue Application" style="text;html=1;align=left;verticalAlign=top;spacingTop=-4;fontSize=10;fontFamily=Verdana" parent="1" vertex="1">
          <mxGeometry x="437" y="134.5" width="130" height="20" as="geometry" />
        </mxCell>
        <mxCell id="wQKDGnHZupbdsFtt9BV4-2" value="" style="group" vertex="1" connectable="0" parent="1">
          <mxGeometry x="860" y="20" width="130" height="70" as="geometry" />
        </mxCell>
        <mxCell id="wQKDGnHZupbdsFtt9BV4-3" value="Web API" style="shape=folder;fontStyle=1;spacingTop=10;tabWidth=50;tabHeight=17;tabPosition=left;html=1;rounded=0;shadow=0;comic=0;labelBackgroundColor=none;strokeWidth=1;fontFamily=Verdana;fontSize=10;align=center;" vertex="1" parent="wQKDGnHZupbdsFtt9BV4-2">
          <mxGeometry width="130" height="70" as="geometry" />
        </mxCell>
        <mxCell id="wQKDGnHZupbdsFtt9BV4-9" value="" style="group" vertex="1" connectable="0" parent="1">
          <mxGeometry x="1252" y="130" width="230" height="614.5" as="geometry" />
        </mxCell>
        <mxCell id="6e0c8c40b5770093-25" value="" style="shape=folder;fontStyle=1;spacingTop=10;tabWidth=123;tabHeight=24;tabPosition=left;html=1;rounded=0;shadow=0;comic=0;labelBackgroundColor=none;strokeWidth=1;fontFamily=Verdana;fontSize=10;align=center;" parent="wQKDGnHZupbdsFtt9BV4-9" vertex="1">
          <mxGeometry width="230" height="614.5" as="geometry" />
        </mxCell>
        <mxCell id="6e0c8c40b5770093-27" value="Button/Input&lt;br&gt;Components" style="shape=folder;fontStyle=1;spacingTop=10;tabWidth=50;tabHeight=17;tabPosition=left;html=1;rounded=0;shadow=0;comic=0;labelBackgroundColor=none;strokeWidth=1;fontFamily=Verdana;fontSize=10;align=center;" parent="wQKDGnHZupbdsFtt9BV4-9" vertex="1">
          <mxGeometry x="18" y="38.88645833333334" width="112" height="89.61458333333334" as="geometry" />
        </mxCell>
        <mxCell id="6e0c8c40b5770093-31" value="Header/Footer" style="shape=folder;fontStyle=1;spacingTop=10;tabWidth=50;tabHeight=17;tabPosition=left;html=1;rounded=0;shadow=0;comic=0;labelBackgroundColor=none;strokeWidth=1;fontFamily=Verdana;fontSize=10;align=center;" parent="wQKDGnHZupbdsFtt9BV4-9" vertex="1">
          <mxGeometry x="18" y="144.69270833333337" width="112" height="89.61458333333334" as="geometry" />
        </mxCell>
        <mxCell id="6e0c8c40b5770093-28" value="Transition/Modals" style="shape=folder;fontStyle=1;spacingTop=10;tabWidth=50;tabHeight=17;tabPosition=left;html=1;rounded=0;shadow=0;comic=0;labelBackgroundColor=none;strokeWidth=1;fontFamily=Verdana;fontSize=10;align=center;" parent="wQKDGnHZupbdsFtt9BV4-9" vertex="1">
          <mxGeometry x="18" y="254.5008333333334" width="112" height="89.61458333333334" as="geometry" />
        </mxCell>
        <mxCell id="wQKDGnHZupbdsFtt9BV4-5" value="Mint Component Library" style="text;html=1;align=left;verticalAlign=top;spacingTop=-4;fontSize=10;fontFamily=Verdana" vertex="1" parent="wQKDGnHZupbdsFtt9BV4-9">
          <mxGeometry width="130" height="20" as="geometry" />
        </mxCell>
        <mxCell id="wQKDGnHZupbdsFtt9BV4-7" value="Results Card" style="shape=folder;fontStyle=1;spacingTop=10;tabWidth=50;tabHeight=17;tabPosition=left;html=1;rounded=0;shadow=0;comic=0;labelBackgroundColor=none;strokeWidth=1;fontFamily=Verdana;fontSize=10;align=center;" vertex="1" parent="wQKDGnHZupbdsFtt9BV4-9">
          <mxGeometry x="18" y="370.0008333333334" width="112" height="89.61458333333334" as="geometry" />
        </mxCell>
        <mxCell id="wQKDGnHZupbdsFtt9BV4-8" value="Presentation Blocks" style="shape=folder;fontStyle=1;spacingTop=10;tabWidth=50;tabHeight=17;tabPosition=left;html=1;rounded=0;shadow=0;comic=0;labelBackgroundColor=none;strokeWidth=1;fontFamily=Verdana;fontSize=10;align=center;" vertex="1" parent="wQKDGnHZupbdsFtt9BV4-9">
          <mxGeometry x="18" y="490.0008333333334" width="112" height="89.61458333333334" as="geometry" />
        </mxCell>
        <mxCell id="wQKDGnHZupbdsFtt9BV4-16" value="" style="edgeStyle=orthogonalEdgeStyle;rounded=0;orthogonalLoop=1;jettySize=auto;html=1;exitX=0.525;exitY=0.023;exitDx=0;exitDy=0;exitPerimeter=0;entryX=0.562;entryY=0.995;entryDx=0;entryDy=0;entryPerimeter=0;" edge="1" parent="1" source="6e0c8c40b5770093-72" target="wQKDGnHZupbdsFtt9BV4-3">
          <mxGeometry relative="1" as="geometry">
            <mxPoint x="951.5" y="79.99999999999989" as="targetPoint" />
          </mxGeometry>
        </mxCell>
        <mxCell id="wQKDGnHZupbdsFtt9BV4-26" value="" style="edgeStyle=orthogonalEdgeStyle;rounded=0;orthogonalLoop=1;jettySize=auto;html=1;" edge="1" parent="1" source="6e0c8c40b5770093-56" target="wQKDGnHZupbdsFtt9BV4-18">
          <mxGeometry relative="1" as="geometry">
            <mxPoint x="1257" y="1050" as="targetPoint" />
            <Array as="points">
              <mxPoint x="639" y="1050" />
            </Array>
          </mxGeometry>
        </mxCell>
        <mxCell id="wQKDGnHZupbdsFtt9BV4-27" value="" style="group" vertex="1" connectable="0" parent="1">
          <mxGeometry x="488.5" y="773" width="580" height="130" as="geometry" />
        </mxCell>
        <mxCell id="6e0c8c40b5770093-47" value="" style="shape=folder;fontStyle=1;spacingTop=10;tabWidth=123;tabHeight=24;tabPosition=left;html=1;rounded=0;shadow=0;comic=0;labelBackgroundColor=none;strokeWidth=1;fontFamily=Verdana;fontSize=10;align=center;" parent="wQKDGnHZupbdsFtt9BV4-27" vertex="1">
          <mxGeometry width="580" height="130" as="geometry" />
        </mxCell>
        <mxCell id="6e0c8c40b5770093-49" value="Enquiry Store" style="shape=folder;fontStyle=1;spacingTop=10;tabWidth=50;tabHeight=17;tabPosition=left;html=1;rounded=0;shadow=0;comic=0;labelBackgroundColor=none;strokeWidth=1;fontFamily=Verdana;fontSize=10;align=center;" parent="wQKDGnHZupbdsFtt9BV4-27" vertex="1">
          <mxGeometry x="26.25" y="35.889999999999986" width="112" height="70" as="geometry" />
        </mxCell>
        <mxCell id="6e0c8c40b5770093-50" value="Reference Store" style="shape=folder;fontStyle=1;spacingTop=10;tabWidth=50;tabHeight=17;tabPosition=left;html=1;rounded=0;shadow=0;comic=0;labelBackgroundColor=none;strokeWidth=1;fontFamily=Verdana;fontSize=10;align=center;" parent="wQKDGnHZupbdsFtt9BV4-27" vertex="1">
          <mxGeometry x="441.75" y="35.889999999999986" width="112" height="70" as="geometry" />
        </mxCell>
        <mxCell id="wQKDGnHZupbdsFtt9BV4-10" value="Results Store" style="shape=folder;fontStyle=1;spacingTop=10;tabWidth=50;tabHeight=17;tabPosition=left;html=1;rounded=0;shadow=0;comic=0;labelBackgroundColor=none;strokeWidth=1;fontFamily=Verdana;fontSize=10;align=center;" vertex="1" parent="wQKDGnHZupbdsFtt9BV4-27">
          <mxGeometry x="162.75" y="35.889999999999986" width="112" height="70" as="geometry" />
        </mxCell>
        <mxCell id="wQKDGnHZupbdsFtt9BV4-11" value="Filters Store" style="shape=folder;fontStyle=1;spacingTop=10;tabWidth=50;tabHeight=17;tabPosition=left;html=1;rounded=0;shadow=0;comic=0;labelBackgroundColor=none;strokeWidth=1;fontFamily=Verdana;fontSize=10;align=center;" vertex="1" parent="wQKDGnHZupbdsFtt9BV4-27">
          <mxGeometry x="305.25" y="35.889999999999986" width="112" height="70" as="geometry" />
        </mxCell>
        <mxCell id="wQKDGnHZupbdsFtt9BV4-12" value="Pinia" style="text;html=1;align=left;verticalAlign=top;spacingTop=-4;fontSize=10;fontFamily=Verdana" vertex="1" parent="wQKDGnHZupbdsFtt9BV4-27">
          <mxGeometry x="5" y="2" width="130" height="20" as="geometry" />
        </mxCell>
        <mxCell id="wQKDGnHZupbdsFtt9BV4-28" value="" style="group" vertex="1" connectable="0" parent="1">
          <mxGeometry x="1252" y="764.5" width="230" height="310" as="geometry" />
        </mxCell>
        <mxCell id="wQKDGnHZupbdsFtt9BV4-18" value="" style="shape=folder;fontStyle=1;spacingTop=10;tabWidth=123;tabHeight=24;tabPosition=left;html=1;rounded=0;shadow=0;comic=0;labelBackgroundColor=none;strokeWidth=1;fontFamily=Verdana;fontSize=10;align=center;" vertex="1" parent="wQKDGnHZupbdsFtt9BV4-28">
          <mxGeometry width="230" height="310" as="geometry" />
        </mxCell>
        <mxCell id="wQKDGnHZupbdsFtt9BV4-19" value="Vue/Vite Plugins" style="shape=folder;fontStyle=1;spacingTop=10;tabWidth=50;tabHeight=17;tabPosition=left;html=1;rounded=0;shadow=0;comic=0;labelBackgroundColor=none;strokeWidth=1;fontFamily=Verdana;fontSize=10;align=center;" vertex="1" parent="wQKDGnHZupbdsFtt9BV4-28">
          <mxGeometry x="18" y="38.886458333333394" width="112" height="89.61458333333334" as="geometry" />
        </mxCell>
        <mxCell id="wQKDGnHZupbdsFtt9BV4-20" value="Common Functions&lt;br&gt;/ Utils" style="shape=folder;fontStyle=1;spacingTop=10;tabWidth=50;tabHeight=17;tabPosition=left;html=1;rounded=0;shadow=0;comic=0;labelBackgroundColor=none;strokeWidth=1;fontFamily=Verdana;fontSize=10;align=center;" vertex="1" parent="wQKDGnHZupbdsFtt9BV4-28">
          <mxGeometry x="18" y="144.69270833333337" width="112" height="89.61458333333334" as="geometry" />
        </mxCell>
        <mxCell id="wQKDGnHZupbdsFtt9BV4-22" value="Mint Utils Library" style="text;html=1;align=left;verticalAlign=top;spacingTop=-4;fontSize=10;fontFamily=Verdana" vertex="1" parent="wQKDGnHZupbdsFtt9BV4-28">
          <mxGeometry x="3" y="3" width="130" height="20" as="geometry" />
        </mxCell>
        <mxCell id="wQKDGnHZupbdsFtt9BV4-29" value="" style="edgeStyle=orthogonalEdgeStyle;rounded=0;orthogonalLoop=1;jettySize=auto;html=1;entryX=0.605;entryY=0.187;entryDx=0;entryDy=0;entryPerimeter=0;" edge="1" parent="1" source="6e0c8c40b5770093-4" target="6e0c8c40b5770093-11">
          <mxGeometry relative="1" as="geometry" />
        </mxCell>
        <mxCell id="wQKDGnHZupbdsFtt9BV4-30" style="edgeStyle=orthogonalEdgeStyle;rounded=0;orthogonalLoop=1;jettySize=auto;html=1;entryX=0.537;entryY=0.163;entryDx=0;entryDy=0;entryPerimeter=0;exitX=0.842;exitY=0.979;exitDx=0;exitDy=0;exitPerimeter=0;" edge="1" parent="1" source="6e0c8c40b5770093-4" target="6e0c8c40b5770093-20">
          <mxGeometry relative="1" as="geometry">
            <Array as="points">
              <mxPoint x="702" y="270" />
              <mxPoint x="963" y="270" />
            </Array>
          </mxGeometry>
        </mxCell>
        <mxCell id="wQKDGnHZupbdsFtt9BV4-41" value="" style="group" vertex="1" connectable="0" parent="1">
          <mxGeometry x="540" y="476.5" width="515" height="240" as="geometry" />
        </mxCell>
        <mxCell id="6e0c8c40b5770093-33" value="" style="shape=folder;fontStyle=1;spacingTop=10;tabWidth=123;tabHeight=24;tabPosition=left;html=1;rounded=0;shadow=0;comic=0;labelBackgroundColor=none;strokeColor=#000000;strokeWidth=1;fillColor=#ffffff;fontFamily=Verdana;fontSize=10;fontColor=#000000;align=center;" parent="wQKDGnHZupbdsFtt9BV4-41" vertex="1">
          <mxGeometry width="515" height="240" as="geometry" />
        </mxCell>
        <mxCell id="6e0c8c40b5770093-42" value="Filters" style="shape=folder;fontStyle=1;spacingTop=10;tabWidth=50;tabHeight=17;tabPosition=left;html=1;rounded=0;shadow=0;comic=0;labelBackgroundColor=none;strokeColor=#000000;strokeWidth=1;fillColor=#ffffff;fontFamily=Verdana;fontSize=10;fontColor=#000000;align=center;" parent="wQKDGnHZupbdsFtt9BV4-41" vertex="1">
          <mxGeometry x="28.5" y="37.5" width="112" height="70" as="geometry" />
        </mxCell>
        <mxCell id="6e0c8c40b5770093-43" value="Results Elements" style="shape=folder;fontStyle=1;spacingTop=10;tabWidth=50;tabHeight=17;tabPosition=left;html=1;rounded=0;shadow=0;comic=0;labelBackgroundColor=none;strokeColor=#000000;strokeWidth=1;fillColor=#ffffff;fontFamily=Verdana;fontSize=10;fontColor=#000000;align=center;" parent="wQKDGnHZupbdsFtt9BV4-41" vertex="1">
          <mxGeometry x="187" y="37.5" width="112" height="70" as="geometry" />
        </mxCell>
        <mxCell id="6e0c8c40b5770093-44" value="Quote Summary" style="shape=folder;fontStyle=1;spacingTop=10;tabWidth=50;tabHeight=17;tabPosition=left;html=1;rounded=0;shadow=0;comic=0;labelBackgroundColor=none;strokeColor=#000000;strokeWidth=1;fillColor=#ffffff;fontFamily=Verdana;fontSize=10;fontColor=#000000;align=center;" parent="wQKDGnHZupbdsFtt9BV4-41" vertex="1">
          <mxGeometry x="344.5" y="37.5" width="112" height="70" as="geometry" />
        </mxCell>
        <mxCell id="6e0c8c40b5770093-45" value="Errors" style="shape=folder;fontStyle=1;spacingTop=10;tabWidth=50;tabHeight=17;tabPosition=left;html=1;rounded=0;shadow=0;comic=0;labelBackgroundColor=none;strokeColor=#000000;strokeWidth=1;fillColor=#ffffff;fontFamily=Verdana;fontSize=10;fontColor=#000000;align=center;" parent="wQKDGnHZupbdsFtt9BV4-41" vertex="1">
          <mxGeometry x="28.5" y="126.5" width="112" height="70" as="geometry" />
        </mxCell>
        <mxCell id="wQKDGnHZupbdsFtt9BV4-40" value="Components" style="text;html=1;align=left;verticalAlign=top;spacingTop=-4;fontSize=10;fontFamily=Verdana" vertex="1" parent="wQKDGnHZupbdsFtt9BV4-41">
          <mxGeometry x="2" y="2" width="130" height="20" as="geometry" />
        </mxCell>
        <mxCell id="wQKDGnHZupbdsFtt9BV4-52" value="Other localised&lt;br&gt;components" style="shape=folder;fontStyle=1;spacingTop=10;tabWidth=50;tabHeight=17;tabPosition=left;html=1;rounded=0;shadow=0;comic=0;labelBackgroundColor=none;strokeColor=#000000;strokeWidth=1;fillColor=#ffffff;fontFamily=Verdana;fontSize=10;fontColor=#000000;align=center;" vertex="1" parent="wQKDGnHZupbdsFtt9BV4-41">
          <mxGeometry x="187" y="126.5" width="112" height="70" as="geometry" />
        </mxCell>
        <mxCell id="wQKDGnHZupbdsFtt9BV4-53" value="Debug" style="shape=folder;fontStyle=1;spacingTop=10;tabWidth=50;tabHeight=17;tabPosition=left;html=1;rounded=0;shadow=0;comic=0;labelBackgroundColor=none;strokeColor=#000000;strokeWidth=1;fillColor=#ffffff;fontFamily=Verdana;fontSize=10;fontColor=#000000;align=center;" vertex="1" parent="wQKDGnHZupbdsFtt9BV4-41">
          <mxGeometry x="344.5" y="126.5" width="112" height="70" as="geometry" />
        </mxCell>
        <mxCell id="wQKDGnHZupbdsFtt9BV4-42" value="" style="group" vertex="1" connectable="0" parent="1">
          <mxGeometry x="120" y="220" width="230" height="310" as="geometry" />
        </mxCell>
        <mxCell id="wQKDGnHZupbdsFtt9BV4-43" value="" style="shape=folder;fontStyle=1;spacingTop=10;tabWidth=123;tabHeight=24;tabPosition=left;html=1;rounded=0;shadow=0;comic=0;labelBackgroundColor=none;strokeWidth=1;fontFamily=Verdana;fontSize=10;align=center;" vertex="1" parent="wQKDGnHZupbdsFtt9BV4-42">
          <mxGeometry width="230" height="310" as="geometry" />
        </mxCell>
        <mxCell id="wQKDGnHZupbdsFtt9BV4-44" value="Dialogue SDK" style="shape=folder;fontStyle=1;spacingTop=10;tabWidth=50;tabHeight=17;tabPosition=left;html=1;rounded=0;shadow=0;comic=0;labelBackgroundColor=none;strokeWidth=1;fontFamily=Verdana;fontSize=10;align=center;" vertex="1" parent="wQKDGnHZupbdsFtt9BV4-42">
          <mxGeometry x="18" y="38.886458333333394" width="112" height="89.61458333333334" as="geometry" />
        </mxCell>
        <mxCell id="wQKDGnHZupbdsFtt9BV4-46" value="NQA Wrapper" style="text;html=1;align=left;verticalAlign=top;spacingTop=-4;fontSize=10;fontFamily=Verdana" vertex="1" parent="wQKDGnHZupbdsFtt9BV4-42">
          <mxGeometry x="3" y="3" width="130" height="20" as="geometry" />
        </mxCell>
        <mxCell id="wQKDGnHZupbdsFtt9BV4-47" style="edgeStyle=orthogonalEdgeStyle;rounded=0;orthogonalLoop=1;jettySize=auto;html=1;exitX=0;exitY=0;exitDx=0;exitDy=43.5;exitPerimeter=0;entryX=0;entryY=0;entryDx=230;entryDy=167;entryPerimeter=0;" edge="1" parent="1" source="6e0c8c40b5770093-15" target="wQKDGnHZupbdsFtt9BV4-43">
          <mxGeometry relative="1" as="geometry">
            <Array as="points">
              <mxPoint x="400" y="378" />
              <mxPoint x="400" y="387" />
            </Array>
          </mxGeometry>
        </mxCell>
        <mxCell id="wQKDGnHZupbdsFtt9BV4-48" style="edgeStyle=orthogonalEdgeStyle;rounded=0;orthogonalLoop=1;jettySize=auto;html=1;exitX=0.5;exitY=1;exitDx=0;exitDy=0;exitPerimeter=0;entryX=0.692;entryY=0.107;entryDx=0;entryDy=0;entryPerimeter=0;" edge="1" parent="1" source="6e0c8c40b5770093-20" target="6e0c8c40b5770093-33">
          <mxGeometry relative="1" as="geometry" />
        </mxCell>
        <mxCell id="wQKDGnHZupbdsFtt9BV4-49" style="edgeStyle=orthogonalEdgeStyle;rounded=0;orthogonalLoop=1;jettySize=auto;html=1;entryX=0.364;entryY=0.107;entryDx=0;entryDy=0;entryPerimeter=0;" edge="1" parent="1" source="6e0c8c40b5770093-11" target="6e0c8c40b5770093-33">
          <mxGeometry relative="1" as="geometry" />
        </mxCell>
        <mxCell id="wQKDGnHZupbdsFtt9BV4-50" style="edgeStyle=orthogonalEdgeStyle;rounded=0;orthogonalLoop=1;jettySize=auto;html=1;entryX=0.336;entryY=0.199;entryDx=0;entryDy=0;entryPerimeter=0;" edge="1" parent="1" source="6e0c8c40b5770093-11" target="6e0c8c40b5770093-47">
          <mxGeometry relative="1" as="geometry">
            <Array as="points">
              <mxPoint x="510" y="750" />
              <mxPoint x="683" y="750" />
            </Array>
          </mxGeometry>
        </mxCell>
        <mxCell id="wQKDGnHZupbdsFtt9BV4-51" style="edgeStyle=orthogonalEdgeStyle;rounded=0;orthogonalLoop=1;jettySize=auto;html=1;entryX=0.675;entryY=0.192;entryDx=0;entryDy=0;entryPerimeter=0;" edge="1" parent="1" source="6e0c8c40b5770093-20" target="6e0c8c40b5770093-47">
          <mxGeometry relative="1" as="geometry">
            <Array as="points">
              <mxPoint x="1080" y="750" />
              <mxPoint x="880" y="750" />
            </Array>
          </mxGeometry>
        </mxCell>
        <mxCell id="wQKDGnHZupbdsFtt9BV4-54" style="edgeStyle=orthogonalEdgeStyle;rounded=0;orthogonalLoop=1;jettySize=auto;html=1;entryX=0.534;entryY=0.205;entryDx=0;entryDy=0;entryPerimeter=0;" edge="1" parent="1" source="6e0c8c40b5770093-33" target="6e0c8c40b5770093-47">
          <mxGeometry relative="1" as="geometry" />
        </mxCell>
      </root>
    </mxGraphModel>
  </diagram>
</mxfile>
